<svg xmlns="http://www.w3.org/2000/svg" viewBox="0 0 1200 360" role="img" aria-labelledby="title desc">
<title id="title">AG Academic Ecosystem</title><desc id="desc">Native vector master identity in navy, cyan, blue and gold.</desc>
<defs><linearGradient id="blue" x1="0" y1="0" x2="1" y2="1"><stop stop-color="#38bdf8"/><stop offset="1" stop-color="#2563eb"/></linearGradient><linearGradient id="gold" x1="0" y1="0" x2="1" y2="1"><stop stop-color="#fde68a"/><stop offset=".48" stop-color="#fbbf24"/><stop offset="1" stop-color="#d97706"/></linearGradient><filter id="glow"><feGaussianBlur stdDeviation="5" result="b"/><feMerge><feMergeNode in="b"/><feMergeNode in="SourceGraphic"/></feMerge></filter></defs>
<rect width="1200" height="360" rx="44" fill="#07111f"/>
<circle cx="180" cy="180" r="126" fill="#0b1c31" stroke="#38bdf8" stroke-width="4"/>
<circle cx="180" cy="180" r="108" fill="none" stroke="#fbbf24" stroke-width="3" opacity=".7"/>
<path d="M74 196c34-91 113-139 210-112" fill="none" stroke="url(#blue)" stroke-width="9" stroke-linecap="round"/>
<path d="M89 232c54 61 146 72 211 19" fill="none" stroke="url(#gold)" stroke-width="7" stroke-linecap="round"/>
<g stroke="#38bdf8" stroke-width="3" opacity=".8"><path d="M107 112l43 27 44-45 42 33 45-19"/><path d="M106 250l43-31 47 27 42-38 48 19"/></g>
<g fill="#7dd3fc"><circle cx="107" cy="112" r="7"/><circle cx="150" cy="139" r="7"/><circle cx="194" cy="94" r="7"/><circle cx="236" cy="127" r="7"/><circle cx="281" cy="108" r="7"/></g>
<text x="92" y="225" font-family="Arial,Helvetica,sans-serif" font-size="142" font-weight="900" fill="url(#gold)" filter="url(#glow)">A</text>
<text x="174" y="225" font-family="Arial,Helvetica,sans-serif" font-size="142" font-weight="900" fill="url(#blue)" filter="url(#glow)">G</text>
<text x="350" y="156" font-family="Arial,Helvetica,sans-serif" font-size="102" font-weight="900" letter-spacing="-5" fill="#f8fafc">AG</text>
<text x="350" y="214" font-family="Arial,Helvetica,sans-serif" font-size="35" font-weight="700" letter-spacing="7" fill="#38bdf8">ACADEMIC ECOSYSTEM</text>
<text x="350" y="266" font-family="Arial,Helvetica,sans-serif" font-size="25" fill="#cbd5e1">Research • Education • Innovation • Impact</text>
</svg>